<?xml version="1.0" encoding="utf-8" ?>
<svg xmlns="http://www.w3.org/2000/svg" xmlns:xlink="http://www.w3.org/1999/xlink" width="392" height="397">
	<defs>
		<filter id="blur">
			<feGaussianBlur in="SourceGraphic" stdDeviation="10"/>
		</filter>
		<linearGradient id="gradient_0" gradientUnits="userSpaceOnUse" x1="125.67468" y1="323.655" x2="142.48969" y2="151.18483">
			<stop offset="0" stop-color="#AA417D"/>
			<stop offset="1" stop-color="#3F47A4"/>
		</linearGradient>
	</defs>
	<rect width="392" height="397" fill="rgba(255, 255, 255, 0.5)" filter="url(#blur)"/>
	<path fill="url(#gradient_0)" d="M89.1996 158.388C89.9215 158.023 90.7077 157.59 91.4961 157.402C93.7863 156.855 101.332 156.359 103.978 156.204C115.89 155.505 127.967 156.199 139.902 155.994C142.907 155.942 145.863 155.346 148.859 155.209C155.533 154.903 162.281 155.202 168.961 155.211C172.835 155.216 184.722 154.604 187.528 155.463C189.507 156.069 191.463 160.008 192.274 161.728C192.928 163.114 193.565 164.614 193.743 166.149C194.051 168.806 192.967 182.563 192.137 184.882C191.453 186.795 190.357 188.984 188.88 190.401C188.828 190.452 188.778 190.506 188.723 190.554C188.268 190.955 187.449 190.977 186.865 191.002C181.701 191.219 176.439 191.011 171.268 191.001L141.308 190.972C137.497 190.969 130.768 190.403 127.363 191.357C125.209 191.96 123.295 193.68 122.032 195.478C121.68 199.844 121.818 204.257 121.842 208.634C121.863 212.547 121.761 216.509 122.048 220.412C124.06 222.927 125.706 224.631 129.038 225.016C132.832 225.455 136.801 225.015 140.624 225.151C143.671 225.26 146.69 225.839 149.743 225.951C155.939 226.178 162.165 225.91 168.366 226.046C172.797 226.143 177.288 227.154 181.678 226.985C184.137 232.893 185.261 240.465 184.728 246.869C184.512 249.465 183.853 252.027 183.662 254.615C182.957 255.447 182.246 256.351 181.299 256.918C178.89 258.359 174.561 258.454 171.799 258.689C166.531 259.137 161.165 258.778 155.879 258.982C152.342 259.119 148.847 259.805 145.306 259.874C140.054 259.976 134.413 259.473 129.246 260.499C127.43 260.859 125.782 261.334 124.525 262.786C120.665 267.245 122.11 279.136 121.921 285.022C121.818 288.228 121.083 291.382 120.998 294.587C120.844 300.392 121.413 306.595 120.626 312.332C119.108 316.448 120.929 320.622 118.547 324.906C116.875 325.409 115.704 325.854 113.919 325.947C109.677 326.167 97.0427 326.302 93.3192 325.576C92.0021 325.319 90.6197 324.867 89.6323 323.921C88.9052 323.224 88.4654 322.321 88.2443 321.348C87.4809 317.989 88.0359 307.894 88.0587 303.866C88.008 295.097 88.2359 286.292 88.0027 277.531C87.8701 272.545 87.2625 267.598 87.1835 262.591C86.8566 241.873 86.9137 221.038 87.146 200.317C87.2097 194.634 87.8954 189.02 88.0151 183.367C88.1165 178.575 88.0407 173.767 88.0496 168.974C88.0547 166.262 87.898 163.281 88.3523 160.607C88.4846 159.829 88.8418 159.086 89.1996 158.388Z"/>
	<path fill="#B54572" d="M88.0587 303.866C88.343 305.911 88.5087 308.036 88.5394 310.101C88.5769 312.617 88.1595 315.555 88.8629 317.973C89.0181 318.507 89.5594 318.991 89.995 319.309C91.0981 320.114 93.3779 320.869 94.7576 320.599C95.6082 320.433 96.1245 319.386 96.9391 319.143C98.0551 318.81 99.5615 319.621 100.699 319.549C101.914 319.473 103.133 317.898 104.361 317.874C105.125 317.859 105.744 318.716 106.443 318.868C108.864 319.396 111.813 318.096 114.365 318.47C114.95 318.555 115.522 318.741 116.005 318.302C116.114 318.203 116.397 317.873 116.487 317.773C117.015 317.18 117.475 316.714 118.305 316.658C118.736 316.63 119.126 316.726 119.54 316.834C120.204 314.762 118.882 311.224 120.114 309.45C120.115 310.423 119.987 311.399 120.558 312.231C120.581 312.265 120.603 312.299 120.626 312.332C119.108 316.448 120.929 320.622 118.547 324.906C116.875 325.409 115.704 325.854 113.919 325.947C109.677 326.167 97.0427 326.302 93.3192 325.576C92.0021 325.319 90.6197 324.867 89.6323 323.921C88.9052 323.224 88.4654 322.321 88.2443 321.348C87.4809 317.989 88.0359 307.894 88.0587 303.866Z"/>
	<defs>
		<linearGradient id="gradient_1" gradientUnits="userSpaceOnUse" x1="245.12358" y1="235.88519" x2="240.196" y2="134.05492">
			<stop offset="0" stop-color="#EC633D"/>
			<stop offset="1" stop-color="#B8456D"/>
		</linearGradient>
	</defs>
	<path fill="url(#gradient_1)" d="M200.648 135.559C200.876 135.665 201.106 135.765 201.336 135.867C201.896 136.115 202.471 136.382 203.071 136.518C204.97 136.947 207.472 136.626 209.453 136.634Q218.316 136.696 227.179 136.593C230.115 136.584 233.11 136.887 236.033 136.732C237.229 136.669 239.591 136.484 240.566 135.871C240.735 135.445 240.893 135.072 241.138 134.682L241.596 134.723C241.881 135.052 242.259 135.576 242.641 135.783C243.914 136.474 247.327 136.193 249.049 136.654L249.342 136.378C248.646 136.047 247.558 135.774 247.082 135.172C247.013 135.084 246.95 134.99 246.883 134.9C251.753 136.212 256.513 138.158 261.223 139.946C274.473 144.978 290.406 151.11 297.794 164.054C303.995 174.92 304.323 191.348 301.02 203.216C297.757 214.941 287.464 224.058 277.155 229.85C273.213 232.064 269.12 234.074 264.666 235.003C257.689 236.458 250.229 235.979 243.129 235.974C237.736 235.971 232.254 236.151 226.88 235.686C222.801 235.334 218.604 234.708 214.66 233.598C206.115 231.192 190.704 224.581 184.123 218.668L184.038 218.593C183.923 216.95 183.938 215.545 184.319 213.939C185.646 208.352 191.802 197.209 195.512 193.019Q196.023 192.437 196.586 191.907L196.911 191.926C201.639 192.231 208.296 195.402 212.899 197.165C226.756 202.471 250.375 210.878 263.334 199.752C265.981 197.479 267.911 194.312 268.178 190.791C268.446 187.251 267.641 184.216 265.303 181.514C261.494 177.11 254.784 174.747 249.455 172.739C245.365 171.198 241.275 169.597 237.138 168.186C219.454 162.152 198.853 155.639 189.841 137.592C189.987 137.546 190.134 137.501 190.282 137.461L190.483 137.409C191.834 137.045 196.637 137.389 198.379 137.336L200.648 135.559Z"/>
	<defs>
		<linearGradient id="gradient_2" gradientUnits="userSpaceOnUse" x1="260.5773" y1="90.758232" x2="252.77335" y2="22.508142">
			<stop offset="0" stop-color="#6A4191"/>
			<stop offset="1" stop-color="#41479F"/>
		</linearGradient>
	</defs>
	<path fill="url(#gradient_2)" d="M314.354 14.978C318.464 14.9059 321.005 15.5056 324.392 17.9731C328.208 20.7535 331.325 24.0446 334.759 27.2488C338.156 30.4182 341.748 33.2672 345.032 36.5881C347.586 39.1709 349.74 42.0794 352.214 44.7255C356.571 49.3858 366.22 57.9347 367.111 64.2614C367.268 65.3742 366.627 66.4568 365.938 67.2865C365.305 68.049 364.45 68.6666 363.578 69.1316C355.947 73.197 317.799 85.313 309.71 85.8921C308.711 85.9636 307.397 86.0979 306.595 85.3984C304.869 81.0614 307.112 65.1123 307.138 59.3118C296.107 55.0237 284.585 53.8175 272.887 52.7954C269.873 52.5321 266.855 52.0755 263.833 51.952C258.661 51.7406 253.434 51.9013 248.255 51.9098C243.673 51.9174 239.011 51.7699 234.439 52.043C227.127 52.4799 219.52 53.5006 212.304 54.7565C209.678 54.8538 206.832 55.5568 204.245 56.0295C190.314 58.5753 176.455 62.6122 163.046 67.1313C158.28 68.7376 147.046 73.6993 142.813 73.6527C173.552 52.5163 219.394 36.1634 256.548 32.306C263.121 31.6236 269.783 32.3636 276.375 32.0238C279.473 31.8641 282.54 31.3367 285.639 31.1745C293.977 30.7381 302.684 30.7799 311.02 31.1229L311.018 30.9563C310.961 25.8502 310.527 18.8897 314.354 14.978Z"/>
	<defs>
		<linearGradient id="gradient_3" gradientUnits="userSpaceOnUse" x1="106.90855" y1="380.59787" x2="110.04588" y2="308.20377">
			<stop offset="0" stop-color="#F57B31"/>
			<stop offset="1" stop-color="#D15051"/>
		</linearGradient>
	</defs>
	<path fill="url(#gradient_3)" d="M70.7111 306.295Q72.1821 306.215 73.6539 306.153C76.6625 306.031 78.6861 306.332 80.972 308.442C80.8399 317.517 75.1434 325.755 74.7057 334.833C80.9334 340.436 89.0953 343.74 96.788 346.793C121.258 356.502 146.583 362.055 172.688 365.176C177.871 365.795 183.146 366.515 188.351 366.863C191.707 367.088 195.292 366.839 198.589 367.461C199.747 367.68 200.881 368.222 201.964 368.676C199.553 368.989 197.187 369.699 194.823 370.256C191.019 371.152 187.149 371.98 183.272 372.494C168.701 374.426 153.917 373.983 139.252 373.96C134.872 373.945 130.435 374.045 126.062 373.799C116.53 373.264 106.815 371.806 97.4917 369.765C87.7645 367.635 78.2085 364.707 68.4649 362.647C65.7668 368.605 65.7952 376.062 59.6799 379.901C59.3413 379.73 59.0095 379.55 58.676 379.37C56.3128 378.09 54.2121 375.693 52.3572 373.765C43.8795 364.951 22.9364 335.401 19.4678 324.239C18.8721 322.322 18.9701 320.274 19.0102 318.293C24.941 313.697 53.192 309.245 61.8956 307.759C64.8082 307.262 67.8571 307.03 70.7111 306.295Z"/>
	<defs>
		<linearGradient id="gradient_4" gradientUnits="userSpaceOnUse" x1="237.59038" y1="141.481" x2="244.06053" y2="69.469261">
			<stop offset="0" stop-color="#B44772"/>
			<stop offset="1" stop-color="#793F8D"/>
		</linearGradient>
	</defs>
	<path fill="url(#gradient_4)" d="M189.841 137.592C189.473 136.904 189.11 136.208 188.794 135.494C183.739 124.082 184.109 110.681 188.584 99.1776C193.404 86.7903 205.222 78.2796 217.003 73.1305C227.962 68.3407 239.644 68.7683 251.255 69.7884C255.4 70.1525 259.512 70.4055 263.595 71.2656C269.074 72.4195 274.524 74.2178 279.731 76.261C283.927 77.9075 295.167 83.1004 296.776 87.3573C297.487 89.238 296.302 91.916 295.561 93.6391C293.738 97.8743 288.641 108.021 284.657 110.12C283.276 110.848 281.787 111.017 280.255 110.885C276.383 110.55 272.342 108.92 268.689 107.668C264.015 106.066 259.4 104.449 254.595 103.275C249.919 102.134 245.36 101.718 240.556 101.768C237.056 101.805 233.552 102.115 230.276 103.442C226.396 105.015 223.079 108.151 221.476 112.059C220.416 114.641 220.798 118.403 221.868 120.931C225.069 128.491 239.625 132.009 246.883 134.9C246.95 134.99 247.013 135.084 247.082 135.172C247.558 135.774 248.646 136.047 249.342 136.378L249.049 136.654C247.327 136.193 243.914 136.474 242.641 135.783C242.259 135.576 241.881 135.052 241.596 134.723L241.138 134.682C240.893 135.072 240.735 135.445 240.566 135.871C239.591 136.484 237.229 136.669 236.033 136.732C233.11 136.887 230.115 136.584 227.179 136.593Q218.316 136.696 209.453 136.634C207.472 136.626 204.97 136.947 203.071 136.518C202.471 136.382 201.896 136.115 201.336 135.867C201.106 135.765 200.876 135.665 200.648 135.559L198.379 137.336C196.637 137.389 191.834 137.045 190.483 137.409L190.282 137.461C190.134 137.501 189.987 137.546 189.841 137.592Z"/>
</svg>
